<mxfile host="app.diagrams.net" modified="2020-12-21T14:38:55.805Z" agent="5.0 (Windows NT 10.0; Win64; x64) AppleWebKit/537.36 (KHTML, like Gecko) Chrome/87.0.4280.88 Safari/537.36" etag="WJ1UAyfn119N1EV1LcaZ" version="14.1.1" type="github">
  <diagram id="VvrQXZiGgJxXtHWpphrn" name="第 1 页">
    <mxGraphModel dx="1038" dy="580" grid="1" gridSize="10" guides="1" tooltips="1" connect="1" arrows="1" fold="1" page="1" pageScale="1" pageWidth="827" pageHeight="1169" math="0" shadow="0">
      <root>
        <mxCell id="0" />
        <mxCell id="1" parent="0" />
        <mxCell id="lT9_1T-F9tKFjYY36Jcc-4" value="" style="rounded=0;whiteSpace=wrap;html=1;" vertex="1" parent="1">
          <mxGeometry x="90" y="40" width="550" height="280" as="geometry" />
        </mxCell>
        <mxCell id="lT9_1T-F9tKFjYY36Jcc-1" value="DUT" style="rounded=0;whiteSpace=wrap;html=1;" vertex="1" parent="1">
          <mxGeometry x="294" y="330" width="156" height="50" as="geometry" />
        </mxCell>
        <mxCell id="lT9_1T-F9tKFjYY36Jcc-2" value="" style="endArrow=none;html=1;" edge="1" parent="1">
          <mxGeometry width="50" height="50" relative="1" as="geometry">
            <mxPoint x="80" y="355" as="sourcePoint" />
            <mxPoint x="294" y="354.5" as="targetPoint" />
          </mxGeometry>
        </mxCell>
        <mxCell id="lT9_1T-F9tKFjYY36Jcc-3" value="" style="endArrow=none;html=1;" edge="1" parent="1">
          <mxGeometry width="50" height="50" relative="1" as="geometry">
            <mxPoint x="450" y="354.5" as="sourcePoint" />
            <mxPoint x="660" y="355" as="targetPoint" />
          </mxGeometry>
        </mxCell>
        <mxCell id="lT9_1T-F9tKFjYY36Jcc-5" value="env" style="text;html=1;strokeColor=none;fillColor=none;align=center;verticalAlign=middle;whiteSpace=wrap;rounded=0;" vertex="1" parent="1">
          <mxGeometry x="590" y="50" width="40" height="20" as="geometry" />
        </mxCell>
        <mxCell id="lT9_1T-F9tKFjYY36Jcc-26" style="edgeStyle=orthogonalEdgeStyle;rounded=0;orthogonalLoop=1;jettySize=auto;html=1;entryX=0;entryY=0.5;entryDx=0;entryDy=0;" edge="1" parent="1" source="lT9_1T-F9tKFjYY36Jcc-6" target="lT9_1T-F9tKFjYY36Jcc-14">
          <mxGeometry relative="1" as="geometry" />
        </mxCell>
        <mxCell id="lT9_1T-F9tKFjYY36Jcc-6" value="reference model" style="rounded=0;whiteSpace=wrap;html=1;" vertex="1" parent="1">
          <mxGeometry x="132" y="70" width="130" height="40" as="geometry" />
        </mxCell>
        <mxCell id="lT9_1T-F9tKFjYY36Jcc-14" value="scoreboard" style="rounded=0;whiteSpace=wrap;html=1;" vertex="1" parent="1">
          <mxGeometry x="400" y="70" width="120" height="40" as="geometry" />
        </mxCell>
        <mxCell id="lT9_1T-F9tKFjYY36Jcc-27" style="edgeStyle=orthogonalEdgeStyle;rounded=0;orthogonalLoop=1;jettySize=auto;html=1;entryX=0.5;entryY=1;entryDx=0;entryDy=0;" edge="1" parent="1" source="lT9_1T-F9tKFjYY36Jcc-15" target="lT9_1T-F9tKFjYY36Jcc-6">
          <mxGeometry relative="1" as="geometry" />
        </mxCell>
        <mxCell id="lT9_1T-F9tKFjYY36Jcc-15" value="" style="whiteSpace=wrap;html=1;aspect=fixed;" vertex="1" parent="1">
          <mxGeometry x="125" y="160" width="145" height="145" as="geometry" />
        </mxCell>
        <mxCell id="lT9_1T-F9tKFjYY36Jcc-25" style="edgeStyle=orthogonalEdgeStyle;rounded=0;orthogonalLoop=1;jettySize=auto;html=1;entryX=0.5;entryY=1;entryDx=0;entryDy=0;" edge="1" parent="1" source="lT9_1T-F9tKFjYY36Jcc-16" target="lT9_1T-F9tKFjYY36Jcc-14">
          <mxGeometry relative="1" as="geometry" />
        </mxCell>
        <mxCell id="lT9_1T-F9tKFjYY36Jcc-16" value="" style="whiteSpace=wrap;html=1;aspect=fixed;" vertex="1" parent="1">
          <mxGeometry x="387.5" y="160" width="145" height="145" as="geometry" />
        </mxCell>
        <mxCell id="lT9_1T-F9tKFjYY36Jcc-17" value="in_agent" style="text;html=1;strokeColor=none;fillColor=none;align=center;verticalAlign=middle;whiteSpace=wrap;rounded=0;" vertex="1" parent="1">
          <mxGeometry x="220" y="170" width="40" height="20" as="geometry" />
        </mxCell>
        <mxCell id="lT9_1T-F9tKFjYY36Jcc-19" value="sequencer" style="rounded=0;whiteSpace=wrap;html=1;" vertex="1" parent="1">
          <mxGeometry x="135" y="190" width="95" height="30" as="geometry" />
        </mxCell>
        <mxCell id="lT9_1T-F9tKFjYY36Jcc-28" style="edgeStyle=orthogonalEdgeStyle;rounded=0;orthogonalLoop=1;jettySize=auto;html=1;" edge="1" parent="1" source="lT9_1T-F9tKFjYY36Jcc-20">
          <mxGeometry relative="1" as="geometry">
            <mxPoint x="164" y="350" as="targetPoint" />
          </mxGeometry>
        </mxCell>
        <mxCell id="lT9_1T-F9tKFjYY36Jcc-20" value="driver" style="rounded=0;whiteSpace=wrap;html=1;" vertex="1" parent="1">
          <mxGeometry x="138" y="250" width="52" height="40" as="geometry" />
        </mxCell>
        <mxCell id="lT9_1T-F9tKFjYY36Jcc-21" value="monitor" style="rounded=0;whiteSpace=wrap;html=1;" vertex="1" parent="1">
          <mxGeometry x="200" y="250" width="52" height="40" as="geometry" />
        </mxCell>
        <mxCell id="lT9_1T-F9tKFjYY36Jcc-23" value="monitor" style="rounded=0;whiteSpace=wrap;html=1;" vertex="1" parent="1">
          <mxGeometry x="468" y="254" width="52" height="40" as="geometry" />
        </mxCell>
        <mxCell id="lT9_1T-F9tKFjYY36Jcc-24" value="out_agent" style="text;html=1;strokeColor=none;fillColor=none;align=center;verticalAlign=middle;whiteSpace=wrap;rounded=0;" vertex="1" parent="1">
          <mxGeometry x="480" y="180" width="40" height="20" as="geometry" />
        </mxCell>
        <mxCell id="lT9_1T-F9tKFjYY36Jcc-29" value="" style="endArrow=classic;html=1;" edge="1" parent="1">
          <mxGeometry width="50" height="50" relative="1" as="geometry">
            <mxPoint x="226" y="350" as="sourcePoint" />
            <mxPoint x="225.5" y="290" as="targetPoint" />
          </mxGeometry>
        </mxCell>
        <mxCell id="lT9_1T-F9tKFjYY36Jcc-30" value="" style="endArrow=classic;html=1;" edge="1" parent="1">
          <mxGeometry width="50" height="50" relative="1" as="geometry">
            <mxPoint x="494" y="353" as="sourcePoint" />
            <mxPoint x="493.5" y="293" as="targetPoint" />
          </mxGeometry>
        </mxCell>
      </root>
    </mxGraphModel>
  </diagram>
</mxfile>
